<?xml version="1.0" encoding="utf-8"?>
<!-- Generator: Adobe Illustrator 21.0.0, SVG Export Plug-In . SVG Version: 6.00 Build 0)  -->
<svg version="1.1" id="图层_1" xmlns="http://www.w3.org/2000/svg" xmlns:xlink="http://www.w3.org/1999/xlink" x="0px" y="0px"
	 viewBox="0 0 141.7 141.7" style="enable-background:new 0 0 141.7 141.7;" xml:space="preserve">
<style type="text/css">
	.st0{fill:#FFFFFF;}
</style>
<path class="st0" d="M98.3,117c3.4,3.3,6.8,6.5,10.1,9.9c3.5,3.6,3.6,8.3,0.5,11.7c-3.2,3.5-8.1,3.9-12,0.8
	c-1.1-0.9-2.1-1.9-3.1-2.9c-20-19.6-40-39.2-60-58.8c-4.4-4.4-4.4-9.4,0.2-13.9c14.5-14.1,28.9-28.3,43.4-42.4
	c6.4-6.2,12.7-12.6,19.3-18.7c3.8-3.6,9-3.2,12.3,0.4c3.2,3.5,3.1,8.4-0.6,12c-12.2,12-24.5,23.8-36.6,35.8
	c-6.7,6.6-13,13.5-19.8,20.5C67.4,86.5,82.9,101.7,98.3,117z"/>
</svg>
