<?xml version="1.0" encoding="utf-8"?>
<!-- Generator: Adobe Illustrator 21.0.0, SVG Export Plug-In . SVG Version: 6.00 Build 0)  -->
<svg version="1.1" id="图层_1" xmlns="http://www.w3.org/2000/svg" xmlns:xlink="http://www.w3.org/1999/xlink" x="0px" y="0px"
	 viewBox="0 0 141.7 141.7" style="enable-background:new 0 0 141.7 141.7;" xml:space="preserve">
<style type="text/css">
	.st0{fill-rule:evenodd;clip-rule:evenodd;}
	.st1{fill:#606060;}
	.st2{fill-rule:evenodd;clip-rule:evenodd;fill:#FFFFFF;}
	.st3{fill:#FFFFFF;}
	.st4{fill-rule:evenodd;clip-rule:evenodd;fill:#606060;}
</style>
<path class="st3" d="M89.8,71.4C83,64.4,76.7,57.5,70,50.9c-12.1-12-24.4-23.8-36.6-35.8c-3.7-3.6-3.8-8.5-0.6-12
	c3.3-3.6,8.5-4,12.3-0.4C51.7,8.8,58,15.2,64.4,21.4c14.5,14.1,28.9,28.3,43.4,42.4c4.6,4.5,4.6,9.5,0.2,13.9
	c-20,19.6-40,39.2-60,58.8c-1,1-2,2-3.1,2.9c-3.9,3.1-8.8,2.7-12-0.8c-3.1-3.4-3-8.1,0.5-11.7c3.3-3.4,6.7-6.6,10.1-9.9
	C58.9,101.7,74.4,86.5,89.8,71.4z"/>
</svg>
