<?xml version="1.0" encoding="utf-8"?>
<!-- Generator: Adobe Illustrator 21.0.0, SVG Export Plug-In . SVG Version: 6.00 Build 0)  -->
<svg version="1.1" id="图层_1" xmlns="http://www.w3.org/2000/svg" xmlns:xlink="http://www.w3.org/1999/xlink" x="0px" y="0px"
	 viewBox="0 0 141.7 141.7" style="enable-background:new 0 0 141.7 141.7;" xml:space="preserve">
<style type="text/css">
	.st0{fill-rule:evenodd;clip-rule:evenodd;}
	.st1{fill:#FFFFFF;}
	.st2{fill-rule:evenodd;clip-rule:evenodd;fill:#FFFFFF;}
</style>
<path class="st2" d="M70.9,38.4c-2.2,0-4.4,2.2-4.4,4.4c0,2.2,1.8,4.4,4.4,4.4c2.6,0,4.4-2.2,4.4-4.4C75.2,40.6,73.1,38.4,70.9,38.4
	z M59.9,70.9c-2.2,0-3.6,1.5-3.6,3.6v21.9c0,1.8,1.5,3.6,3.6,3.6c2.2,0,3.6-1.5,3.6-3.6V74.5C63.6,72.7,62.1,70.9,59.9,70.9z
	 M81.8,70.9c-2.2,0-3.6,1.5-3.6,3.6v21.9c0,1.8,1.5,3.6,3.6,3.6c2.2,0,3.6-1.5,3.6-3.6V74.5C85.4,72.7,84,70.9,81.8,70.9z M70.9,2.8
	c-37.6,0-68,30.5-68,68s30.5,68,68,68s68-30.5,68-68S108.4,2.8,70.9,2.8z M103.7,63.6c0,2.2-1.8,3.6-3.6,3.6h-3.6v29.2
	c0,6.2-4.7,10.9-10.9,10.9H56.3c-6.2,0-10.9-4.7-10.9-10.9V67.2h-3.6c-2.2,0-3.6-1.5-3.6-3.6v-1.8c0-1.1,0.7-1.8,1.8-1.8h62
	c1.1,0,1.8,0.7,1.8,1.8V63.6z M103.7,54.5c0,1.1-0.7,1.8-1.8,1.8h-62c-1.1,0-1.8-0.7-1.8-1.8v-1.8c0-2.2,1.8-3.6,3.6-3.6h14.6v-7.3
	c0-4,3.3-7.3,7.3-7.3h14.6c4,0,7.3,3.3,7.3,7.3V49H100c2.2,0,3.6,1.5,3.6,3.6V54.5z"/>
</svg>
