<?xml version="1.0" encoding="utf-8"?>
<!-- Generator: Adobe Illustrator 21.0.0, SVG Export Plug-In . SVG Version: 6.00 Build 0)  -->
<svg version="1.1" id="图层_1" xmlns="http://www.w3.org/2000/svg" xmlns:xlink="http://www.w3.org/1999/xlink" x="0px" y="0px"
	 viewBox="0 0 141.7 141.7" style="enable-background:new 0 0 141.7 141.7;" xml:space="preserve">
<style type="text/css">
	.st0{fill-rule:evenodd;clip-rule:evenodd;}
	.st1{fill:#606060;}
	.st2{fill-rule:evenodd;clip-rule:evenodd;fill:#FFFFFF;}
	.st3{fill:#FFFFFF;}
	.st4{fill-rule:evenodd;clip-rule:evenodd;fill:#606060;}
</style>
<path class="st2" d="M84.6,70.9l51.4-51.4c3.8-3.8,3.8-10,0-13.8c-3.8-3.8-10-3.8-13.8,0L70.9,57.1L19.4,5.7c-3.8-3.8-10-3.8-13.8,0
	c-3.8,3.8-3.8,10,0,13.8l51.4,51.4L5.7,122.3c-3.8,3.8-3.8,10,0,13.8s10,3.8,13.8,0l51.4-51.4l51.4,51.4c3.8,3.8,10,3.8,13.8,0
	s3.8-10,0-13.8L84.6,70.9z"/>
</svg>
