<?xml version="1.0" encoding="utf-8"?>
<!-- Generator: Adobe Illustrator 21.0.0, SVG Export Plug-In . SVG Version: 6.00 Build 0)  -->
<svg version="1.1" id="图层_1" xmlns="http://www.w3.org/2000/svg" xmlns:xlink="http://www.w3.org/1999/xlink" x="0px" y="0px"
	 viewBox="0 0 141.7 141.7" style="enable-background:new 0 0 141.7 141.7;" xml:space="preserve">
<style type="text/css">
	.st0{fill-rule:evenodd;clip-rule:evenodd;}
	.st1{fill:#FFFFFF;}
	.st2{fill-rule:evenodd;clip-rule:evenodd;fill:#FFFFFF;}
</style>
<g>
	<g>
		<path class="st2" d="M113.6,2.8H28.1c-14,0-25.3,11.3-25.3,25.3v85.5c0,14,11.3,25.3,25.3,25.3h85.5c14,0,25.3-11.3,25.3-25.3
			V28.1C138.9,14.2,127.6,2.8,113.6,2.8z M68.9,108.7c0,2.1-2.2,3.4-4,2.4L31.7,93.5c-0.9-0.5-1.5-1.4-1.5-2.4V54.7
			c0-2.1,2.3-3.4,4.1-2.4l33.2,18.9c0.9,0.5,1.4,1.4,1.4,2.4V108.7z M68.4,68.5L34.5,48.9c-1.9-1.1-1.8-3.8,0.1-4.8L68.5,26
			c0.8-0.4,1.8-0.4,2.6,0L105,44.1c1.9,1,2,3.7,0.1,4.8L71.2,68.5C70.3,69,69.3,69,68.4,68.5z M109.4,90.2c0,1-0.5,1.9-1.4,2.4
			L74.8,111c-1.8,1-4.1-0.3-4.1-2.4V73c0-1,0.5-1.9,1.4-2.4l33.2-18.4c1.8-1,4.1,0.3,4.1,2.4V90.2z"/>
	</g>
</g>
</svg>
