<?xml version="1.0" encoding="utf-8"?>
<!-- Generator: Adobe Illustrator 21.0.0, SVG Export Plug-In . SVG Version: 6.00 Build 0)  -->
<svg version="1.1" id="图层_1" xmlns="http://www.w3.org/2000/svg" xmlns:xlink="http://www.w3.org/1999/xlink" x="0px" y="0px"
	 viewBox="0 0 141.7 141.7" style="enable-background:new 0 0 141.7 141.7;" xml:space="preserve">
<style type="text/css">
	.st0{fill-rule:evenodd;clip-rule:evenodd;}
	.st1{fill:#FFFFFF;}
	.st2{fill-rule:evenodd;clip-rule:evenodd;fill:#FFFFFF;}
</style>
<path class="st1" d="M141,91.4c-0.1-7.3-0.8-14.5-2.1-21.6c-2.5-13.5-6.4-26.5-14-38.1c-10.6-16.3-31-13.6-40.7-5.9
	c-9.3,7.3-17.4,7.4-26.5,0.1c-12.8-10.2-31.4-7.6-40.7,5.8c-5.3,7.5-8.6,16-11,24.8C2,71-0.7,85.9,1.4,101.1
	c1.5,11.3,8.3,19,18,20.6c8.2,1.4,15.2-1.6,21-7.2c5-4.8,9.5-10,13.5-15.7c1.5-2.2,3.2-3.2,6-3.1c7,0.2,14,0.3,21,0
	c3.6-0.2,5.5,1.2,7.4,3.8c4.4,6.1,9.1,11.9,14.9,16.7c14,11.5,31.8,5.5,36.3-12C140.7,100.1,141.1,95.8,141,91.4z M55.2,66.7
	c-2.4,0.1-4.8,0-7.6,0c0,2.7,0.1,5,0,7.3c-0.2,4.5-2.6,7.3-6,7.3c-3.5-0.1-5.7-3-5.8-7.4c0-2.2,0-4.4,0-7.2c-2.5,0-4.9,0-7.3,0
	c-4.4-0.1-7.3-2.4-7.3-5.9c0-3.5,2.8-5.8,7.2-5.9c2.3,0,4.6,0,7.4,0c0-3.1-0.1-5.7,0-8.2c0.1-3.8,2.4-6.2,5.7-6.3
	c3.1-0.1,5.6,2.1,5.9,5.7c0.3,2.8,0.1,5.5,0.1,8.8c2.8,0,5.2,0,7.6,0c4.2,0.1,6.9,2.4,6.9,5.8C62,64.2,59.4,66.5,55.2,66.7z
	 M92.7,75.1c-4.1,0-7.3-3.4-7.1-7.4c0.1-3.9,3.4-6.9,7.3-6.9c4,0,7.3,3.4,7.2,7.4C99.9,72.1,96.6,75.1,92.7,75.1z M107.3,57.7
	c-4.2,0-7.2-3.1-7.1-7.4c0.1-4,3.2-7,7.1-7c4.1,0,7.3,3.2,7.3,7.3C114.6,54.6,111.4,57.7,107.3,57.7z"/>
</svg>
