<?xml version="1.0" encoding="utf-8"?>
<!-- Generator: Adobe Illustrator 21.0.0, SVG Export Plug-In . SVG Version: 6.00 Build 0)  -->
<svg version="1.1" id="图层_1" xmlns="http://www.w3.org/2000/svg" xmlns:xlink="http://www.w3.org/1999/xlink" x="0px" y="0px"
	 viewBox="0 0 141.7 141.7" style="enable-background:new 0 0 141.7 141.7;" xml:space="preserve">
<style type="text/css">
	.st0{fill-rule:evenodd;clip-rule:evenodd;}
	.st1{fill:#FFFFFF;}
	.st2{fill-rule:evenodd;clip-rule:evenodd;fill:#FFFFFF;}
</style>
<g>
	<path class="st1" d="M23.7,17.5v9.3h43.2v-4.1c0,0-20.4-18.3-23.5-19.9C40.4,1.2,23.7,0.3,23.7,17.5z"/>
	<path class="st1" d="M1.2,39.5v9.8c0,5.3,4.3,9.7,9.7,9.7h56.1V29.8H10.9C5.5,29.8,1.2,34.1,1.2,39.5z"/>
	<path class="st1" d="M12.4,130.1c0,5.3,4.3,9.7,9.7,9.7h44.8V65.3H12.4V130.1z"/>
	<path class="st1" d="M118.1,17.5c0-17.2-16.7-16.3-19.8-14.7c-3.1,1.6-23.5,19.9-23.5,19.9v4.1h43.2V17.5z"/>
	<path class="st1" d="M130.9,29.8H74.8V59h56.1c5.3,0,9.7-4.3,9.7-9.7v-9.8C140.5,34.1,136.2,29.8,130.9,29.8z"/>
	<path class="st1" d="M74.8,139.8h44.8c5.3,0,9.7-4.3,9.7-9.7V65.3H74.8V139.8z"/>
</g>
</svg>
