<?xml version="1.0" encoding="utf-8"?>
<!-- Generator: Adobe Illustrator 21.0.0, SVG Export Plug-In . SVG Version: 6.00 Build 0)  -->
<svg version="1.1" id="图层_1" xmlns="http://www.w3.org/2000/svg" xmlns:xlink="http://www.w3.org/1999/xlink" x="0px" y="0px"
	 viewBox="0 0 141.7 141.7" style="enable-background:new 0 0 141.7 141.7;" xml:space="preserve">
<style type="text/css">
	.st0{fill:#FFFFFF;}
</style>
<path class="st0" d="M88.6,108.1l-43.8,27.6l16.1-26.3C28,105.6,2.8,84.1,2.8,58c0-28.6,30.5-51.9,68.1-51.9s68.1,23.2,68.1,51.9
	C138.9,82,117.6,102.1,88.6,108.1z M87.1,52.3H76.6v30.3h10.5V52.3z M87.1,36.8H76.6v10.5h10.5V36.8z M101.7,67.2h10.5V36.8h-10.5
	V67.2z M101.7,82.6h10.5V72.1h-10.5V82.6z M56.1,36.8v17.7H41.9V36.8H31.4v17.7V65v17.7h10.5V65h14.2v17.7h10.5V36.8H56.1z"/>
</svg>
