<?xml version="1.0" encoding="utf-8"?>
<!-- Generator: Adobe Illustrator 21.0.0, SVG Export Plug-In . SVG Version: 6.00 Build 0)  -->
<svg version="1.1" id="图层_1" xmlns="http://www.w3.org/2000/svg" xmlns:xlink="http://www.w3.org/1999/xlink" x="0px" y="0px"
	 viewBox="0 0 141.7 141.7" style="enable-background:new 0 0 141.7 141.7;" xml:space="preserve">
<style type="text/css">
	.st0{fill-rule:evenodd;clip-rule:evenodd;}
	.st1{fill:#606060;}
	.st2{fill-rule:evenodd;clip-rule:evenodd;fill:#FFFFFF;}
	.st3{fill:#FFFFFF;}
	.st4{fill-rule:evenodd;clip-rule:evenodd;fill:#606060;}
</style>
<g>
	<path class="st2" d="M134.1,18H7.6c-4,0-7.2,3.4-7.2,7.5v90.6c0,4.2,3.2,7.5,7.2,7.5h126.5c4,0,7.2-3.4,7.2-7.5V25.6
		C141.3,21.4,138.1,18,134.1,18L134.1,18 M66.4,99.6c-0.1,0.9-0.4,1.6-0.7,2.1c-0.2,0.3-0.8,0.6-1.7,0.9c-1,0.3-2.2,0.6-3.6,0.9
		c-1.4,0.3-3,0.5-4.7,0.7c-1.7,0.2-3.5,0.4-5.2,0.6c-1.7,0.2-3.4,0.3-5.1,0.4c-1.6,0.1-3,0.2-4.3,0.2c-1.2,0-2.6-0.1-4.2-0.2
		c-1.6-0.1-3.3-0.2-5-0.4c-1.7-0.2-3.4-0.3-5.1-0.5c-1.7-0.2-3.2-0.4-4.6-0.6c-1.4-0.2-2.6-0.5-3.5-0.7c-1-0.2-1.6-0.5-1.8-0.7
		c-0.4-0.4-0.7-1.4-1-3.2c-0.2-1.8-0.2-4.1,0.2-6.9c0.2-1.6,0.9-2.9,1.9-3.7c1-0.8,2.2-1.5,3.6-2c1.4-0.5,2.8-1,4.2-1.4
		c1.5-0.4,2.7-1,3.9-1.7c0.9-0.6,1.6-1.2,2-1.7c0.5-0.5,0.8-1,1-1.5c0.2-0.5,0.3-1,0.3-1.6c0-0.6,0-1.2-0.1-1.9
		c-0.1-1-0.4-1.8-1-2.4c-0.6-0.6-1.2-1.2-1.9-1.7c-0.3-0.3-0.7-0.7-0.9-1.3c-0.3-0.6-0.5-1.1-0.7-1.7c-0.2-0.6-0.4-1.3-0.6-2.1
		c-0.3-0.1-0.6-0.3-0.9-0.5c-0.2-0.2-0.5-0.5-0.8-0.9c-0.3-0.4-0.5-1-0.8-1.7c-0.2-0.7-0.3-1.4-0.3-2c0-0.6,0.2-1.2,0.4-1.6
		c0.2-0.5,0.5-1,0.8-1.4c-0.1-1.6,0-3.3,0.2-5c0.2-1.4,0.5-2.9,0.9-4.5c0.4-1.6,1.1-3,2-4.4c0.8-1.2,1.7-2.2,2.7-3
		c1-0.8,2-1.4,3-1.8c1-0.4,2.1-0.7,3.1-0.9c1-0.2,2-0.2,3-0.2c2.5,0,4.7,0.5,6.7,1.6c2,1.1,3.4,2.2,4.4,3.5c1.1,1.4,1.9,2.9,2.4,4.7
		c0.5,1.7,0.9,3.3,1.1,4.8c0.2,1.7,0.3,3.5,0.3,5.2c0.2,0.2,0.5,0.5,0.7,0.9c0.1,0.3,0.3,0.7,0.4,1.2c0.1,0.5,0.1,1.1,0,1.8
		c-0.1,0.9-0.3,1.7-0.6,2.2c-0.3,0.6-0.6,1-0.9,1.3c-0.3,0.4-0.7,0.6-1.2,0.7c-0.2,0.8-0.4,1.5-0.6,2.1c-0.2,0.6-0.4,1.1-0.7,1.7
		c-0.3,0.6-0.6,1-1,1.2c-0.4,0.4-0.7,0.7-1.1,0.9c-0.3,0.3-0.6,0.5-0.9,0.8c-0.2,0.3-0.5,0.6-0.6,1c-0.2,0.4-0.3,0.8-0.4,1.3
		c-0.1,0.7-0.1,1.4-0.1,2c0,0.7,0.2,1.4,0.5,2c0.3,0.7,0.8,1.3,1.4,1.9c0.7,0.6,1.6,1.2,2.8,1.6c1,0.5,2.2,0.9,3.4,1.2
		c1.3,0.3,2.5,0.7,3.6,1.2c1.2,0.5,2.2,1.1,3.1,1.8c0.9,0.7,1.6,1.6,2,2.8c0.2,0.7,0.4,1.6,0.5,2.6c0.1,1,0.2,2.1,0.2,3.1
		C66.6,97.7,66.5,98.7,66.4,99.6L66.4,99.6 M122.7,93.9H82.9c-1.8,0-3.2-1.5-3.2-3.4c0-1.9,1.4-3.4,3.2-3.4h39.8
		c1.8,0,3.3,1.5,3.3,3.4C125.9,92.4,124.5,93.9,122.7,93.9L122.7,93.9 M122.7,73.3H82.9c-1.8,0-3.2-1.5-3.2-3.4
		c0-1.9,1.4-3.4,3.2-3.4h39.8c1.8,0,3.3,1.5,3.3,3.4S124.5,73.3,122.7,73.3L122.7,73.3 M122.7,52.5H82.9c-1.8,0-3.2-1.5-3.2-3.4
		c0-1.9,1.4-3.4,3.2-3.4h39.8c1.8,0,3.3,1.5,3.3,3.4C125.9,50.9,124.5,52.5,122.7,52.5L122.7,52.5 M122.7,52.5"/>
</g>
</svg>
