<?xml version="1.0" encoding="utf-8"?>
<!-- Generator: Adobe Illustrator 21.0.0, SVG Export Plug-In . SVG Version: 6.00 Build 0)  -->
<svg version="1.1" id="图层_1" xmlns="http://www.w3.org/2000/svg" xmlns:xlink="http://www.w3.org/1999/xlink" x="0px" y="0px"
	 viewBox="0 0 141.7 141.7" style="enable-background:new 0 0 141.7 141.7;" xml:space="preserve">
<style type="text/css">
	.st0{fill-rule:evenodd;clip-rule:evenodd;}
	.st1{fill:#FFFFFF;}
	.st2{fill-rule:evenodd;clip-rule:evenodd;fill:#FFFFFF;}
</style>
<path class="st2" d="M70.9,2.8c-37.6,0-68,30.5-68,68s30.5,68,68,68c37.6,0,68-30.5,68-68S108.4,2.8,70.9,2.8z M42.2,54
	c4.1-11.6,15.3-19.9,28.5-19.9c13.2,0,24.4,8.3,28.5,19.9c2.9,1.6,4.9,4.7,4.9,8.2c0,5.2-4.3,9.3-9.5,9.3V52.8c0.3,0,0.5,0,0.8,0
	c-4.2-9.2-13.7-15.6-24.7-15.6c-11,0-20.4,6.4-24.7,15.6c0.3,0,0.5,0,0.8,0v18.7c-5.3,0-9.5-4.2-9.5-9.3
	C37.3,58.7,39.3,55.6,42.2,54z M91.4,63.8c0,11.2-9.3,20.2-20.7,20.2c-11.4,0-20.7-9.1-20.7-20.2c0-11.2,9.3-20.2,20.7-20.2
	C82.2,43.5,91.4,52.6,91.4,63.8z M34.1,107.6c0-11.8,6.3-20.4,16-25.3c5.4,4.9,12.6,7.9,20.6,7.9c8,0,15.2-3,20.6-8
	c9.8,4.9,16.2,13.5,16.2,25.3H34.1z"/>
</svg>
