<?xml version="1.0" encoding="utf-8"?>
<!-- Generator: Adobe Illustrator 21.0.0, SVG Export Plug-In . SVG Version: 6.00 Build 0)  -->
<svg version="1.1" id="图层_1" xmlns="http://www.w3.org/2000/svg" xmlns:xlink="http://www.w3.org/1999/xlink" x="0px" y="0px"
	 viewBox="0 0 141.7 141.7" style="enable-background:new 0 0 141.7 141.7;" xml:space="preserve">
<style type="text/css">
	.st0{fill-rule:evenodd;clip-rule:evenodd;}
	.st1{fill:#FFFFFF;}
	.st2{fill-rule:evenodd;clip-rule:evenodd;fill:#FFFFFF;}
</style>
<g>
	<path class="st2" d="M138.9,71.9c-1.1-7.5-6.6-13.5-14.8-16.1c-4.3-1.4-11.7-3.2-17.7-4.6c11-15.7,13.1-31.9,9.1-41.2
		c-2.5-5.8-7.4-9.1-13.2-9.1c-11.3,0-14.3,9.5-16.4,16.4c-0.3,1-0.6,2.1-1,3.2c-2,6-12,16.7-26.7,24.9c-11,6.1-21.5,14.5-21.9,14.8
		c-1.5,1.2-2.3,2.9-2.3,4.8v59.4c0,2,1,3.8,2.6,5c8.8,6.4,40,11.5,55.6,11.5c8.1,0,11.3-1.3,13-2.2c7-4,16.4-26.4,23.2-45.4
		C136.2,87.3,140,79.6,138.9,71.9L138.9,71.9L138.9,71.9L138.9,71.9 M12.7,54.2c-5.5,0-10,4.5-10,10v60.6c0,5.5,4.5,10,10,10
		c5.5,0,10-4.5,10-10V64.2C22.7,58.7,18.2,54.2,12.7,54.2L12.7,54.2L12.7,54.2L12.7,54.2 M12.7,54.2"/>
</g>
</svg>
