<?xml version="1.0" encoding="utf-8"?>
<!-- Generator: Adobe Illustrator 21.0.0, SVG Export Plug-In . SVG Version: 6.00 Build 0)  -->
<svg version="1.1" id="图层_1" xmlns="http://www.w3.org/2000/svg" xmlns:xlink="http://www.w3.org/1999/xlink" x="0px" y="0px"
	 viewBox="0 0 141.7 141.7" style="enable-background:new 0 0 141.7 141.7;" xml:space="preserve">
<style type="text/css">
	.st0{fill-rule:evenodd;clip-rule:evenodd;}
	.st1{fill:#FFFFFF;}
	.st2{fill-rule:evenodd;clip-rule:evenodd;fill:#FFFFFF;}
</style>
<path class="st1" d="M119.3,63.6h-4.9v-19c0-24-19.5-43.6-43.6-43.6S27.3,20.6,27.3,44.6v19h-4.9c-5.2,0-9.4,4.2-9.4,9.4v58.3
	c0,5.2,4.2,9.4,9.4,9.4h96.9c5.2,0,9.4-4.2,9.4-9.4V73C128.8,67.8,124.5,63.6,119.3,63.6z M43.5,44.6c0-15.1,12.3-27.4,27.4-27.4
	s27.4,12.3,27.4,27.4v19H43.5V44.6z"/>
</svg>
