<?xml version="1.0" encoding="utf-8"?>
<!-- Generator: Adobe Illustrator 21.0.0, SVG Export Plug-In . SVG Version: 6.00 Build 0)  -->
<svg version="1.1" id="图层_1" xmlns="http://www.w3.org/2000/svg" xmlns:xlink="http://www.w3.org/1999/xlink" x="0px" y="0px"
	 viewBox="0 0 141.7 141.7" style="enable-background:new 0 0 141.7 141.7;" xml:space="preserve">
<style type="text/css">
	.st0{fill-rule:evenodd;clip-rule:evenodd;}
	.st1{fill:#FFFFFF;}
	.st2{fill-rule:evenodd;clip-rule:evenodd;fill:#FFFFFF;}
</style>
<g>
	<path class="st2" d="M96.1,0.8H45.6c-7.3,0-13.5,6.1-13.5,13.4v113.3c0,7.4,6.1,13.4,13.5,13.4h50.5c7.4,0,13.5-6,13.5-13.4V14.2
		C109.6,6.9,103.5,0.8,96.1,0.8L96.1,0.8z M63.7,8.1h14.5c0.7,0,1.2,0.5,1.2,1.2c0,0.7-0.5,1.2-1.2,1.2H63.7c-0.7,0-1.2-0.5-1.2-1.2
		C62.5,8.6,63,8.1,63.7,8.1L63.7,8.1z M70.8,135.7c-2.5,0-4.8-2.1-4.8-4.7c0-2.6,2.3-4.7,4.8-4.7c2.7,0,4.7,2.1,4.7,4.7
		C75.5,133.6,73.5,135.7,70.8,135.7L70.8,135.7z M99.6,121.5H42V15.3h57.6V121.5L99.6,121.5z"/>
</g>
</svg>
