<?xml version="1.0" encoding="utf-8"?>
<!-- Generator: Adobe Illustrator 21.0.0, SVG Export Plug-In . SVG Version: 6.00 Build 0)  -->
<svg version="1.1" id="图层_1" xmlns="http://www.w3.org/2000/svg" xmlns:xlink="http://www.w3.org/1999/xlink" x="0px" y="0px"
	 viewBox="0 0 141.7 141.7" style="enable-background:new 0 0 141.7 141.7;" xml:space="preserve">
<style type="text/css">
	.st0{fill-rule:evenodd;clip-rule:evenodd;}
	.st1{fill:#FFFFFF;}
	.st2{fill-rule:evenodd;clip-rule:evenodd;fill:#FFFFFF;}
</style>
<path class="st2" d="M100.1,2.8H41.6C20.2,2.8,2.8,20.2,2.8,41.6v58.5c0,21.4,17.4,38.8,38.8,38.8h58.5c21.4,0,38.8-17.4,38.8-38.8
	V41.6C138.9,20.2,121.5,2.8,100.1,2.8z M87.2,32.4c3.4,1.4,6.6,3.3,9.6,5.7c1.2,1,2.4,2,3.5,3.1c2.6,2.6,4.8,5.5,6.6,8.6
	c0.4,0.8,0.9,1.6,1.3,2.4l-21,20.9C87.4,71.8,87.2,32.4,87.2,32.4z M66.2,29.4c1.5-0.2,3.1-0.3,4.7-0.3c3.7,0,7.3,0.5,10.8,1.4
	c0.9,0.2,1.7,0.5,2.6,0.8v29.6c-0.7-1-28.8-28.8-28.8-28.8C58.8,30.8,62.4,29.8,66.2,29.4z M38.2,45c1-1.2,2-2.4,3.1-3.5
	c2.6-2.6,5.5-4.8,8.6-6.6c0.8-0.4,1.6-0.9,2.4-1.3l20.9,20.9c-1.3-0.2-40.8,0-40.8,0C34,51.2,35.9,47.9,38.2,45z M29.5,75.5
	c-0.2-1.5-0.3-3.1-0.3-4.7c0-3.7,0.5-7.3,1.4-10.8c0.2-0.9,0.5-1.7,0.8-2.6h29.6c-1,0.7-28.8,28.8-28.8,28.8
	C30.9,82.9,30,79.3,29.5,75.5z M45,103.5c-1.2-1-2.4-2-3.5-3.1c-2.6-2.6-4.8-5.5-6.6-8.6c-0.4-0.8-0.9-1.6-1.3-2.4l20.9-20.9
	c-0.2,1.3,0,40.7,0,40.7C51.2,107.7,48,105.8,45,103.5z M75.5,112.3c-1.5,0.2-3.1,0.3-4.7,0.3c-3.7,0-7.3-0.5-10.8-1.4
	c-0.9-0.2-1.7-0.5-2.6-0.8V80.8c0.7,1,28.8,28.8,28.8,28.8C82.9,111,79.3,111.9,75.5,112.3z M103.3,96.9c-1,1.2-2,2.4-3.1,3.5
	c-2.6,2.6-5.5,4.8-8.6,6.6c-0.8,0.4-1.6,0.9-2.4,1.3l-21-20.9c1.3,0.2,40.7,0,40.7,0C107.6,90.7,105.7,94,103.3,96.9z M111,81.7
	c-0.2,0.9-0.5,1.7-0.8,2.6H80.6c1-0.7,28.8-28.8,28.8-28.8c1.4,3.4,2.3,7,2.7,10.8c0.2,1.5,0.3,3.1,0.3,4.7
	C112.5,74.7,112,78.3,111,81.7z"/>
</svg>
