<?xml version="1.0" encoding="utf-8"?>
<!-- Generator: Adobe Illustrator 21.0.0, SVG Export Plug-In . SVG Version: 6.00 Build 0)  -->
<svg version="1.1" id="图层_1" xmlns="http://www.w3.org/2000/svg" xmlns:xlink="http://www.w3.org/1999/xlink" x="0px" y="0px"
	 viewBox="0 0 141.7 141.7" style="enable-background:new 0 0 141.7 141.7;" xml:space="preserve">
<style type="text/css">
	.st0{fill-rule:evenodd;clip-rule:evenodd;}
	.st1{fill:#606060;}
	.st2{fill-rule:evenodd;clip-rule:evenodd;fill:#FFFFFF;}
	.st3{fill:#FFFFFF;}
	.st4{fill-rule:evenodd;clip-rule:evenodd;fill:#606060;}
</style>
<path class="st2" d="M107.3,0.1h-73C15.5,0.1,0.1,15.5,0.1,34.4v73c0,18.9,15.4,34.3,34.3,34.3h73c18.9,0,34.3-15.4,34.3-34.3v-73
	C141.6,15.5,126.2,0.1,107.3,0.1z M46.2,45.6C48,33.1,57,23.4,68.2,21.8c13.9-2,26.2,6.4,29.8,20.4c4,15.5-5.6,31.2-21.1,34.2
	c-1.5,0.3-3,0.3-4.4,0.5C56.5,76.8,43.8,61.8,46.2,45.6z M24.8,120.2c1.3-10,4.6-18.9,10.9-26.6c6.6-8,15.2-12.6,25.3-14.3
	c10.6-1.8,21.1-1.3,31,3c13.3,5.8,20.3,16.7,23.6,30.4c0.6,2.4,0.8,4.8,1.3,7.5H24.8z"/>
</svg>
