<?xml version="1.0" encoding="utf-8"?>
<!-- Generator: Adobe Illustrator 21.0.0, SVG Export Plug-In . SVG Version: 6.00 Build 0)  -->
<svg version="1.1" id="图层_1" xmlns="http://www.w3.org/2000/svg" xmlns:xlink="http://www.w3.org/1999/xlink" x="0px" y="0px"
	 viewBox="0 0 141.7 141.7" style="enable-background:new 0 0 141.7 141.7;" xml:space="preserve">
<style type="text/css">
	.st0{fill-rule:evenodd;clip-rule:evenodd;}
	.st1{fill:#606060;}
	.st2{fill-rule:evenodd;clip-rule:evenodd;fill:#FFFFFF;}
	.st3{fill:#FFFFFF;}
	.st4{fill-rule:evenodd;clip-rule:evenodd;fill:#606060;}
</style>
<g>
	<path class="st3" d="M125,140.9H16.8c-8.8,0-16-7.2-16-16V16.8c0-8.8,7.2-16,16-16H125c8.8,0,16,7.2,16,16V125
		C140.9,133.8,133.8,140.9,125,140.9z M16.8,4.8c-6.6,0-12,5.4-12,12V125c0,6.6,5.4,12,12,12H125c6.6,0,12-5.4,12-12V16.8
		c0-6.6-5.4-12-12-12H16.8z"/>
</g>
</svg>
