<?xml version="1.0" encoding="utf-8"?>
<!-- Generator: Adobe Illustrator 21.0.0, SVG Export Plug-In . SVG Version: 6.00 Build 0)  -->
<svg version="1.1" id="图层_1" xmlns="http://www.w3.org/2000/svg" xmlns:xlink="http://www.w3.org/1999/xlink" x="0px" y="0px"
	 viewBox="0 0 141.7 141.7" style="enable-background:new 0 0 141.7 141.7;" xml:space="preserve">
<style type="text/css">
	.st0{fill-rule:evenodd;clip-rule:evenodd;}
	.st1{fill:#FFFFFF;}
	.st2{fill-rule:evenodd;clip-rule:evenodd;fill:#FFFFFF;}
</style>
<g>
	<path class="st2" d="M138.9,96V29c0-14.4-11.7-26.2-26.2-26.2H29C14.6,2.8,2.8,14.6,2.8,29v83.7c0,14.4,11.7,26.2,26.2,26.2h83.7
		c12.9,0,23.6-9.3,25.8-21.5c-6.9-3-37-16-52.7-23.5C73.9,108.3,61.4,117,42.6,117c-18.8,0-31.4-11.6-29.9-25.8
		c1-9.3,7.4-24.5,35.1-21.9c14.6,1.4,21.3,4.1,33.2,8c3.1-5.7,5.6-11.9,7.6-18.5H35.8v-5.2H62v-9.4H30v-5.8H62V24.8
		c0,0,0.3-2.1,2.6-2.1h13.1v15.7h34v5.8h-34v9.4h27.7C102.9,64,99,73.5,94.1,81.8C102.2,84.8,138.9,96,138.9,96L138.9,96z M40.5,108
		c-19.9,0-23-12.6-22-17.8c1-5.2,6.8-12,17.9-12c12.7,0,24.1,3.2,37.7,9.9C64.5,100.6,52.8,108,40.5,108L40.5,108z"/>
</g>
</svg>
