<?xml version="1.0" encoding="utf-8"?>
<!-- Generator: Adobe Illustrator 21.0.0, SVG Export Plug-In . SVG Version: 6.00 Build 0)  -->
<svg version="1.1" id="图层_1" xmlns="http://www.w3.org/2000/svg" xmlns:xlink="http://www.w3.org/1999/xlink" x="0px" y="0px"
	 viewBox="0 0 141.7 141.7" style="enable-background:new 0 0 141.7 141.7;" xml:space="preserve">
<style type="text/css">
	.st0{fill-rule:evenodd;clip-rule:evenodd;}
	.st1{fill:#FFFFFF;}
	.st2{fill-rule:evenodd;clip-rule:evenodd;fill:#FFFFFF;}
</style>
<path class="st2" d="M52.3,86.8c-2.2,1.1-4.8,0.3-6-1.8L46,84.3L33.6,57.1c-0.1-0.3-0.2-0.6-0.2-1c0-0.6,0.2-1.2,0.7-1.6
	c0.4-0.4,1-0.7,1.6-0.7c0.5,0,1,0.2,1.4,0.5l14.6,10.4c1.8,1.2,4,1.4,6,0.7l68.7-30.6c-12.3-14.5-32.6-24-55.6-24
	c-37.5,0-68,25.4-68,56.7c0,17,9.2,32.5,23.5,42.8c1.2,0.9,1.9,2.2,1.9,3.7c0,0.5-0.1,1-0.2,1.5L24.9,127c-0.2,0.5-0.3,1.1-0.4,1.7
	c0,1.2,1,2.3,2.3,2.3c0.5,0,0.9-0.2,1.3-0.4l14.9-8.6c1.1-0.7,2.3-1,3.6-1c0.7,0,1.4,0.1,2,0.3c7.2,2.1,14.7,3.1,22.2,3.1
	c37.6,0,68-25.4,68-56.7c0-9.3-2.7-18.4-7.7-26.3L52.8,86.5L52.3,86.8L52.3,86.8L52.3,86.8z"/>
</svg>
