<?xml version="1.0" encoding="utf-8"?>
<!-- Generator: Adobe Illustrator 21.0.0, SVG Export Plug-In . SVG Version: 6.00 Build 0)  -->
<svg version="1.1" id="图层_1" xmlns="http://www.w3.org/2000/svg" xmlns:xlink="http://www.w3.org/1999/xlink" x="0px" y="0px"
	 viewBox="0 0 141.7 141.7" style="enable-background:new 0 0 141.7 141.7;" xml:space="preserve">
<style type="text/css">
	.st0{fill-rule:evenodd;clip-rule:evenodd;}
	.st1{fill:#FFFFFF;}
	.st2{fill-rule:evenodd;clip-rule:evenodd;fill:#FFFFFF;}
</style>
<g>
	<g>
		<path class="st2" d="M70.8,107.1c-1.7,0-3.1,1.4-3.1,3.1s1.5,3.1,3.1,3.1c1.7,0,3.1-1.4,3.1-3.1S72.6,107.1,70.8,107.1z M52,104
			h37.7V34.5H52V104z M66.2,31.4h9.5c0.4,0,0.8-0.4,0.8-0.8c0-0.4-0.4-0.8-0.8-0.8h-9.5c-0.4,0-0.8,0.4-0.8,0.8
			C65.4,31,65.7,31.4,66.2,31.4z M70.9,2.8c-37.6,0-68,30.5-68,68s30.5,68,68,68s68-30.5,68-68S108.4,2.8,70.9,2.8z M96.2,107.9
			c0,4.8-4,8.8-8.8,8.8H54.3c-4.8,0-8.8-4-8.8-8.8V33.8c0-4.8,4-8.8,8.8-8.8h33.1c4.8,0,8.8,4,8.8,8.8V107.9z"/>
	</g>
</g>
</svg>
