<?xml version="1.0" encoding="utf-8"?>
<!-- Generator: Adobe Illustrator 21.0.0, SVG Export Plug-In . SVG Version: 6.00 Build 0)  -->
<svg version="1.1" id="图层_1" xmlns="http://www.w3.org/2000/svg" xmlns:xlink="http://www.w3.org/1999/xlink" x="0px" y="0px"
	 viewBox="0 0 141.7 141.7" style="enable-background:new 0 0 141.7 141.7;" xml:space="preserve">
<style type="text/css">
	.st0{fill-rule:evenodd;clip-rule:evenodd;}
	.st1{fill:#FFFFFF;}
	.st2{fill-rule:evenodd;clip-rule:evenodd;fill:#FFFFFF;}
</style>
<g>
	<g>
		<path class="st2" d="M70.9,2.8c-37.6,0-68,30.5-68,68s30.5,68,68,68s68-30.5,68-68S108.4,2.8,70.9,2.8z M110.7,87.5l-0.1,0.7
			l-0.1,1.2l-0.2,1l-0.3,0.9l-0.1,0.4l-0.2,0.5l-0.2,0.3l-0.2,0.4l-0.2,0.2l-0.3,0.3l-0.2,0.3l-0.2,0.2l-0.3,0.1l-0.3,0.1l-0.2,0.1
			h-0.3l-0.2-0.1l-0.4-0.2l-0.2-0.1l-0.2-0.1l-0.2-0.2l-0.2-0.2l-0.4-0.4l-0.4-0.6l-0.3-0.6l-0.3-0.5l-0.3-0.6l-0.5-1l-0.5-1l-0.1,0
			h-0.1l-0.2,0.2l-0.1,0.3l-0.2,0.3l-0.4,1l-0.5,1.4l-0.7,1.7l-0.5,0.9l-0.5,0.9l-0.6,1l-0.7,1L98,97.7l-0.4,0.5l-1,1l0.1,0.1
			l0.1,0.1l0.5,0.3l2,1l0.9,0.5l0.8,0.5l0.8,0.6l0.7,0.6l0.4,0.3l0.3,0.3l0.3,0.4l0.2,0.4l0.1,0.3l0.2,0.4l0.1,0.4l0.1,0.4l-0.1,0.3
			v0.3l-0.1,0.3l-0.2,0.3l-0.1,0.2l-0.1,0.3l-0.4,0.5l-0.3,0.4l-0.3,0.3l-0.2,0.2l-0.6,0.4l-0.6,0.4l-0.7,0.3l-0.7,0.3l-0.8,0.3
			l-0.4,0.1l-0.4,0.1l-0.9,0.2l-1,0.2l-1,0.2l-1,0.2l-1.1,0l-1.1,0.1h-3.5l-1.2-0.1l-1.2-0.1l-1.2-0.2l-1.2-0.1l-1.3-0.2l-1.3-0.3
			l-1.2-0.3l-1.2-0.4l-1.3-0.5l-1.2-0.4l-0.6-0.2l-0.6-0.2l-0.4-0.1l-0.4-0.1h-1l-1.2-0.1l-0.6-0.1l-0.8-0.1l-0.5,0.5l-0.7,0.4
			l-0.9,0.5l-1,0.6l-0.6,0.3l-0.6,0.2l-1.4,0.6l-0.8,0.2l-0.8,0.2l-1.1,0.2l-0.7,0.1l-0.7,0.1l-0.8,0.1l-0.9,0h-3.7l-2.1,0l-2-0.2
			l-1-0.1l-1-0.2l-1-0.1l-1-0.2l-0.9-0.3l-0.9-0.2l-0.8-0.3l-0.8-0.3l-0.7-0.3l-0.6-0.4l-0.6-0.5l-0.2-0.2l-0.3-0.3l-0.2-0.2
			l-0.2-0.3l-0.2-0.3l-0.1-0.3l-0.2-0.6l-0.1-0.3l-0.1-0.3v-0.3l0.1-0.3v-0.4l0.1-0.3v-0.7l0-0.4l0.2-0.4l0.1-0.4l0.2-0.5l0.2-0.2
			l0.1-0.2l0.4-0.5l0.3-0.2l0.3-0.2l0.3-0.2l0.4-0.1l0.3-0.2l0.4-0.2l0.5-0.1l0.5-0.2l0.6-0.1l0.5-0.1l0.6-0.1l0.7-0.1l0.2-0.1h0
			l0.1-0.1v-0.1l-0.1-0.2l-0.4-0.2l-0.9-0.8l-0.6-0.5L45,97.6l-0.7-0.7L43.5,96l-0.8-1l-0.3-0.5L42,93.8l-0.4-0.7l-0.3-0.7l-0.4-0.7
			L40.5,91l-0.3-0.8l-0.3-0.9l-0.3-0.8l-0.2-1l-0.1,0h-0.1l0-0.1h-0.1L39,87.5l-0.1,0l-0.1,0.2l0,0.2l-0.1,0.2l-0.1,0.3l-0.4,0.8
			l-0.2,0.5L37.6,90l-0.4,0.5L36.8,91l-0.4,0.5l-0.5,0.5l-0.5,0.4l-0.5,0.3l-0.6,0.4l-0.5,0.2l-0.6,0.2l-0.6,0.1h-0.1l-0.1-0.1
			l-0.1-0.3L32,93.1l-0.2-0.6l-0.1-0.3l-0.2-0.5l-0.1-0.5l-0.1-0.5l-0.2-1.1L31,89v-2.1l0.1-1.5l0.1-0.8l0.1-0.8l0.1-0.9l0.2-0.8
			l0.3-0.9l0.3-0.9l0.4-0.9l0.3-0.9l0.5-0.9l0.4-1l0.5-0.9l0.6-1l0.6-0.9l0.7-1l0.6-0.7l0.7-0.8l0.7-0.8l0.3-0.4l0.4-0.4l0.6-0.5
			l0.6-0.6l1-0.9l0.8-0.6l0.3-0.2l-0.2-0.5l-0.1-0.6l-0.1-0.3v-1.4l0.1-0.6l0.2-0.6l0.2-0.6l0.3-0.7l0.4-0.7l0.5-0.7v-0.5l0-0.5
			l0.1-0.6l0.2-0.7l0.2-0.8l0.2-0.4l0.2-0.3l0.2-0.4l0.3-0.3v-1.8l0.1-0.9l0.1-1.1l0.3-1.3l0.4-1.3l0.3-0.7l0.3-0.8l0.3-0.7l0.3-0.8
			l0.4-0.9l0.4-0.8l0.5-0.9l0.6-0.9l0.3-0.5l0.3-0.4l0.6-0.9l0.6-0.9l0.7-0.9l0.8-0.9l0.8-0.9l0.9-0.9l1.1-1l0.7-0.6l0.8-0.7
			l0.8-0.6l0.9-0.6l0.9-0.5l1-0.4l1-0.5l1-0.3l1-0.4l1.1-0.4l1.1-0.3l1.2-0.2l1.2-0.2l1.2-0.2l1.2-0.2l1.2-0.1h3.7l1.2,0.2l1.2,0.2
			l1.3,0.1l1.2,0.3l1.2,0.3l1.2,0.3l1.3,0.3l1.2,0.4l1.1,0.5l1.2,0.5l1.1,0.6l1.1,0.6l1,0.7l0.9,0.6l0.4,0.4l0.4,0.3l0.8,0.7
			l0.7,0.7l0.7,0.7l0.7,0.8l0.6,0.8l0.7,0.8l0.5,0.9l0.5,0.8l0.5,0.9l0.4,0.8l0.7,1.6l0.3,0.8l0.3,0.8l0.3,0.8l0.2,0.8l0.2,0.7
			l0.2,0.8l0.4,1.4l0.2,1.3l0.2,1.2l0.1,1l0.2,1.5l0.1,0.2l0.2,0.3l0.5,0.8l0.3,0.5l0.3,0.5l0.3,0.6l0.3,0.7l0.2,0.7l0.2,0.8
			l0.2,0.8l0.1,0.4l0.1,0.5V63l-0.1,0.4V64l-0.1,0.5l-0.2,1l-0.3,0.5l-0.2,0.6v0.1l0.1,0.2l0.3,0.4l1.1,1.7l0.9,1.2l0.4,0.8l0.6,0.9
			l0.5,1l0.6,1.1l0.6,1.2l0.6,1.4l0.4,0.8l0.3,0.8l0.3,0.9l0.3,0.8l0.2,0.8l0.2,0.8l0.3,1.5l0.2,1.5l0.1,1.3V87.5z"/>
	</g>
</g>
</svg>
