<?xml version="1.0" encoding="utf-8"?>
<!-- Generator: Adobe Illustrator 21.0.0, SVG Export Plug-In . SVG Version: 6.00 Build 0)  -->
<svg version="1.1" id="图层_1" xmlns="http://www.w3.org/2000/svg" xmlns:xlink="http://www.w3.org/1999/xlink" x="0px" y="0px"
	 viewBox="0 0 141.7 141.7" style="enable-background:new 0 0 141.7 141.7;" xml:space="preserve">
<style type="text/css">
	.st0{fill-rule:evenodd;clip-rule:evenodd;}
	.st1{fill:#FFFFFF;}
	.st2{fill-rule:evenodd;clip-rule:evenodd;fill:#FFFFFF;}
</style>
<g>
	<g>
		<path class="st2" d="M113.6,2.8H28.1c-14,0-25.3,11.3-25.3,25.3v85.5c0,14,11.3,25.3,25.3,25.3h85.5c14,0,25.3-11.3,25.3-25.3
			V28.1C138.9,14.2,127.6,2.8,113.6,2.8z M115,62.9L95.4,81.2c-1,1-1.2,1.4-1,2.8l0.4,2.3c-9.5-0.1-20.1-0.6-28.6-1.8
			c-0.7-0.1,0-0.5,0-0.5L94,64.8c0,0,1.1-0.7-0.1-0.9c-1.5-0.2-4.7-0.7-4.7-0.7c-5.6-0.7-11.8-1.1-18.3-1.1c-11,0-21.1,1.1-29.2,2.9
			l0.8,0c11.9,0,24.6,0.5,36,2.2c0.7,0.1,0,0.6,0,0.6L50.7,87.7c0,0-1.2,0.7-0.1,0.9c2.9,0.4,5.9,0.7,9.1,0.9l0,0
			c3.6,0.3,7.4,0.4,11.2,0.4c10.5,0,21.8-1.2,30-3.1l0.6-0.1c-1.4,1.1-3.7,2.1-6.1,2.9l4,21.8c0.4,2.3-0.9,3.3-3,2.1L73.2,100
			c-1.6-1-3.1-1-4.7,0.1l-23.1,13.3c-0.5,0.3-1,0.5-1.6,0.5h0c-1.1,0-1.6-1-1.3-2.6L47.6,84c0.3-1.2,0.3-1.6-0.7-2.5L26.7,62.9
			c-1.7-1.6-1.2-3.2,1.2-3.4l25.8-2.9c2-0.2,2.4-0.5,3.2-1.9L69,29.4c0.5-1.1,1.2-1.6,1.9-1.6v0h0c0.7,0,1.4,0.5,1.9,1.6l11.4,25.3
			c0.6,1.7,1.1,2,3.1,2.2l26.6,2.6C116.3,59.7,116.8,61.3,115,62.9z"/>
	</g>
</g>
</svg>
