<?xml version="1.0" encoding="utf-8"?>
<!-- Generator: Adobe Illustrator 21.0.0, SVG Export Plug-In . SVG Version: 6.00 Build 0)  -->
<svg version="1.1" id="图层_1" xmlns="http://www.w3.org/2000/svg" xmlns:xlink="http://www.w3.org/1999/xlink" x="0px" y="0px"
	 viewBox="0 0 141.7 141.7" style="enable-background:new 0 0 141.7 141.7;" xml:space="preserve">
<style type="text/css">
	.st0{fill-rule:evenodd;clip-rule:evenodd;}
	.st1{fill:#606060;}
	.st2{fill-rule:evenodd;clip-rule:evenodd;fill:#FFFFFF;}
	.st3{fill:#FFFFFF;}
	.st4{fill-rule:evenodd;clip-rule:evenodd;fill:#606060;}
</style>
<g>
	<path class="st3" d="M71.1,1.3c38.3,0.1,69.3,31.2,69.2,69.5c0,38.5-31.2,69.6-69.7,69.5c-38.6-0.1-69.4-31.5-69.3-70.7
		C1.5,32.2,33.1,1.3,71.1,1.3z M70.7,128c31.8,0,57.4-25.4,57.5-57c0.1-31.6-25.6-57.4-57.2-57.4c-31.9,0-57.7,25.8-57.5,57.5
		C13.7,102.6,39.2,128,70.7,128z"/>
	<path class="st3" d="M75.3,29.2c6,0.2,13.6,2.9,17.2,11.7c3.6,8.8,2.2,17.2-4.2,24.5c-1.9,2.1-4,4.1-5.9,6.1
		c-3.8,3.9-6.4,8.3-6.4,14.1c0,4.5-3.7,7.1-8.1,6.4c-4.6-0.7-6.7-3.7-5.8-8.5c1.5-8.2,5.6-14.9,11.5-20.7c3.6-3.5,6.7-7.3,6.6-12.8
		c-0.1-5.2-2.3-7.7-7.5-8.2c-6.1-0.5-9.1,1.5-11.1,7.4c-1,3-5.4,5-9.4,4.3c-3.4-0.6-4.8-2.5-4.7-6.4c0.1-5.7,3-9.8,7.5-13
		C59.6,30.9,65.6,29.2,75.3,29.2z"/>
	<path class="st3" d="M68.8,116.8c-4.5,0-7.6-3.2-7.7-7.7c0-4.4,3.2-7.8,7.6-7.8c4.6-0.1,7.8,3.3,7.8,7.9
		C76.5,113.7,73.3,116.8,68.8,116.8z"/>
</g>
</svg>
