<?xml version="1.0" encoding="utf-8"?>
<!-- Generator: Adobe Illustrator 21.0.0, SVG Export Plug-In . SVG Version: 6.00 Build 0)  -->
<svg version="1.1" id="图层_1" xmlns="http://www.w3.org/2000/svg" xmlns:xlink="http://www.w3.org/1999/xlink" x="0px" y="0px"
	 viewBox="0 0 141.7 141.7" style="enable-background:new 0 0 141.7 141.7;" xml:space="preserve">
<style type="text/css">
	.st0{fill-rule:evenodd;clip-rule:evenodd;}
	.st1{fill:#FFFFFF;}
	.st2{fill-rule:evenodd;clip-rule:evenodd;fill:#FFFFFF;}
</style>
<g>
	<path class="st1" d="M94.9,107.3c-28.3,21.5-62.5,13.5-80.4-7.8c-18.6-22.3-17.8-54.6,1.9-76C35.6,2.5,67.9-1,91.2,15.1
		c23.7,16.4,33.8,50.4,15.1,79.7c3.9,3.4,7.8,6.8,11.8,10.2c6.2,5.3,12.4,10.6,18.5,16c4.6,4,5.4,9,2,12.8c-3.4,3.8-8.5,3.8-13-0.1
		C115.4,125,105.2,116.2,94.9,107.3z M59,13.4C33.2,12.8,10.2,34.5,9.6,60.1c-0.7,28,20.2,50.7,47.4,51.5
		c27.4,0.8,49.9-20.6,50.7-48.2C108.3,36.3,86.6,14,59,13.4z"/>
</g>
</svg>
