<?xml version="1.0" encoding="utf-8"?>
<!-- Generator: Adobe Illustrator 21.0.0, SVG Export Plug-In . SVG Version: 6.00 Build 0)  -->
<svg version="1.1" id="图层_1" xmlns="http://www.w3.org/2000/svg" xmlns:xlink="http://www.w3.org/1999/xlink" x="0px" y="0px"
	 viewBox="0 0 141.7 141.7" style="enable-background:new 0 0 141.7 141.7;" xml:space="preserve">
<style type="text/css">
	.st0{fill-rule:evenodd;clip-rule:evenodd;}
	.st1{fill:#FFFFFF;}
	.st2{fill-rule:evenodd;clip-rule:evenodd;fill:#FFFFFF;}
</style>
<g>
	<path class="st2" d="M50.3,82c0-24.9,21.8-45.1,48.7-45.1c1.5,0,2.9,0.1,4.3,0.2C93.3,23.5,76.1,14.5,56.7,14.5
		c-31,0-56.2,22.7-56.2,50.8c0,19.6,12.3,36.6,30.3,45.1c-4.1,5.2-9.3,9.5-15.3,12.4c3.7,0.9,7.6,1.4,11.6,1.4c10.1,0,19.4-3,27-8.1
		c0.9,0,1.7,0.1,2.6,0.1c3.2,0,6.4-0.2,9.5-0.7C56.4,107.1,50.3,95.2,50.3,82z"/>
	<path class="st2" d="M141.2,82c0-21.6-18.9-39-42.2-39c-23.3,0-42.2,17.5-42.2,39c0,21.6,18.9,39,42.2,39c0.7,0,1.3,0,2,0
		c5.7,3.9,12.8,6.2,20.3,6.2c3,0,5.9-0.4,8.7-1c-4.5-2.2-8.5-5.5-11.5-9.5C132,110.1,141.2,97.1,141.2,82z M78.1,85.1
		c-3.8,0-6.8-3.1-6.8-6.9c0-3.8,3-6.9,6.8-6.9c3.8,0,6.8,3.1,6.8,6.9C84.9,82,81.9,85.1,78.1,85.1z M92.2,78.2c0-3.8,3-6.9,6.8-6.9
		c3.8,0,6.8,3.1,6.8,6.9c0,3.8-3,6.9-6.8,6.9C95.2,85.1,92.2,82,92.2,78.2z M120.1,85.1c-3.8,0-6.8-3.1-6.8-6.9c0-3.8,3-6.9,6.8-6.9
		c3.8,0,6.8,3.1,6.8,6.9C126.9,82,123.9,85.1,120.1,85.1z"/>
</g>
</svg>
