<?xml version="1.0" encoding="utf-8"?>
<!-- Generator: Adobe Illustrator 21.0.0, SVG Export Plug-In . SVG Version: 6.00 Build 0)  -->
<svg version="1.1" id="图层_1" xmlns="http://www.w3.org/2000/svg" xmlns:xlink="http://www.w3.org/1999/xlink" x="0px" y="0px"
	 viewBox="0 0 141.7 141.7" style="enable-background:new 0 0 141.7 141.7;" xml:space="preserve">
<style type="text/css">
	.st0{fill-rule:evenodd;clip-rule:evenodd;}
	.st1{fill:#FFFFFF;}
	.st2{fill-rule:evenodd;clip-rule:evenodd;fill:#FFFFFF;}
</style>
<g>
	<path class="st1" d="M133.1,129.1c-4.5-19-14.3-34.2-32.8-42.3c-13.8-6.1-28.4-6.7-43.1-4.2C43.1,85,31.1,91.3,22,102.5
		c-8.7,10.7-13.4,23.1-15.1,37c42.9,0,85.2,0,127.9,0C134.2,135.8,133.8,132.4,133.1,129.1z"/>
	<path class="st1" d="M73.1,79.3c2.1-0.2,4.1-0.3,6.2-0.7c21.4-4.2,34.8-26,29.3-47.6c-5-19.5-22-31.1-41.4-28.3
		c-15.6,2.2-28,15.7-30.6,33.1C33.3,58.2,50.9,79.1,73.1,79.3z"/>
</g>
</svg>
