<?xml version="1.0" encoding="utf-8"?>
<!-- Generator: Adobe Illustrator 21.0.0, SVG Export Plug-In . SVG Version: 6.00 Build 0)  -->
<svg version="1.1" id="图层_1" xmlns="http://www.w3.org/2000/svg" xmlns:xlink="http://www.w3.org/1999/xlink" x="0px" y="0px"
	 viewBox="0 0 141.7 141.7" style="enable-background:new 0 0 141.7 141.7;" xml:space="preserve">
<style type="text/css">
	.st0{fill-rule:evenodd;clip-rule:evenodd;}
	.st1{fill:#FFFFFF;}
	.st2{fill-rule:evenodd;clip-rule:evenodd;fill:#FFFFFF;}
</style>
<g>
	<g>
		<path class="st2" d="M113.6,2.8H28.1c-14,0-25.3,11.3-25.3,25.3v85.5c0,14,11.3,25.3,25.3,25.3h85.5c14,0,25.3-11.3,25.3-25.3
			V28.1C138.9,14.2,127.6,2.8,113.6,2.8z M102.9,89.4c-1.3,2.5-3.1,4.9-5.6,7.1c-2.4,2.3-5.3,4.3-8.6,6.1c-3.3,1.8-7.1,3.2-11.5,4.3
			c-4.4,1.1-9,1.6-13.8,1.6c-4.8,0-9.5-0.6-14-1.7c-4.6-1.2-8.6-2.8-12.3-4.8c-3.6-2.1-6.5-4.7-8.7-7.9c-2.2-3.2-3.3-6.6-3.3-10.4
			c0-4,1.2-8.2,3.5-12.7c2.4-4.5,5.7-9,10.1-13.4c5.7-5.9,11.5-9.9,17.4-12.3c5.9-2.3,10-2.2,12.6,0.4c2.2,2.2,2.5,5.8,1,10.9
			c-0.1,0.5-0.2,0.8-0.1,1c0.1,0.2,0.3,0.3,0.5,0.4c0.2,0,0.5,0,0.7,0c0.3-0.1,0.5-0.1,0.7-0.2l0.3-0.1c4.7-2,8.9-3.1,12.5-3.1
			c3.6,0,6.2,1.1,7.8,3.2c1.5,2.2,1.5,5.3,0,9.3c-0.1,0.5-0.1,0.8-0.2,1c-0.1,0.2,0,0.5,0.2,0.7c0.2,0.2,0.4,0.3,0.6,0.4
			c0.2,0.1,0.5,0.2,0.9,0.3c1.9,0.6,3.7,1.4,5.2,2.4c1.6,1,2.9,2.4,4.1,4.2c1.2,1.8,1.7,3.8,1.7,6.1C104.8,84.6,104.2,87,102.9,89.4
			z M96.6,53.9c-1.5-1.7-3.3-2.3-5.5-1.8c-0.8,0.2-1.6,0-2.3-0.4c-0.7-0.4-1.1-1.1-1.3-1.9c-0.2-0.8,0-1.6,0.4-2.3
			c0.4-0.7,1.1-1.2,1.9-1.3c2-0.4,4.1-0.4,6.1,0.3c2,0.6,3.7,1.8,5.1,3.4c1.4,1.6,2.4,3.5,2.8,5.6c0.4,2.1,0.3,4.2-0.3,6.1
			c-0.3,0.8-0.8,1.4-1.5,1.8c-0.7,0.4-1.5,0.5-2.3,0.2c-0.8-0.3-1.4-0.8-1.7-1.5c-0.4-0.7-0.4-1.5-0.2-2.3
			C98.5,57.4,98.1,55.5,96.6,53.9z M115.3,65.4c-0.3,0.9-0.9,1.6-1.7,2.1c-0.8,0.5-1.7,0.5-2.6,0.2c-0.9-0.3-1.6-0.9-2-1.8
			c-0.4-0.9-0.5-1.8-0.3-2.7c1-2.8,1.1-5.8,0.5-8.9c-0.6-3.1-2-5.9-4.1-8.2c-2.1-2.4-4.6-4-7.5-5c-2.9-0.9-5.9-1.1-8.8-0.4
			c-1,0.2-1.8,0-2.6-0.5c-0.8-0.5-1.3-1.3-1.5-2.3c-0.2-1,0-1.9,0.5-2.7c0.5-0.8,1.3-1.3,2.2-1.5c4.2-0.9,8.3-0.7,12.4,0.6
			c4.1,1.3,7.6,3.6,10.6,7c3,3.3,4.9,7.2,5.7,11.6C116.9,57.2,116.7,61.4,115.3,65.4z M57.9,84.8c-1.2-0.5-2.4-0.5-3.7-0.1
			c-1.3,0.5-2.3,1.2-3.1,2.4c-0.7,1.2-1,2.4-0.7,3.6c0.3,1.2,1,2.1,2.2,2.6c1.2,0.6,2.4,0.6,3.8,0.1c1.4-0.5,2.4-1.3,3.2-2.5
			c0.7-1.2,0.9-2.4,0.6-3.6C59.8,86.2,59,85.4,57.9,84.8z M84.6,73.1c-2.7-2.6-6.3-4.5-10.6-5.7c-4.4-1.2-9-1.6-14-1.1
			c-7.6,0.8-13.8,3.2-18.8,7.4c-5,4.1-7.2,8.7-6.8,13.8c0.3,3.3,1.8,6.3,4.5,8.8c2.7,2.6,6.3,4.5,10.6,5.7c4.4,1.2,9,1.6,14,1.1
			c7.6-0.8,13.8-3.2,18.8-7.4c5-4.1,7.2-8.7,6.8-13.8C88.8,78.7,87.3,75.7,84.6,73.1z M73.2,90.3c-1.5,3.5-4.2,6.1-8,7.8
			c-3.8,1.7-7.6,1.9-11.4,0.6c-3.6-1.2-6.1-3.4-7.5-6.6c-1.4-3.2-1.3-6.5,0.3-9.8c1.6-3.2,4.2-5.6,7.7-7.2c3.5-1.6,7.1-1.9,10.7-1
			c3.8,1,6.5,3.1,8.1,6.2C74.7,83.5,74.8,86.8,73.2,90.3z M63.7,82.4c-0.5-0.2-1-0.2-1.5,0c-0.5,0.2-0.9,0.5-1.1,1
			c-0.6,1.1-0.4,1.9,0.7,2.3c0.5,0.2,1,0.2,1.5,0c0.5-0.2,0.9-0.5,1.1-1c0.3-0.5,0.3-0.9,0.2-1.4C64.4,82.9,64.1,82.6,63.7,82.4z"/>
	</g>
</g>
</svg>
