<?xml version="1.0" encoding="utf-8"?>
<!-- Generator: Adobe Illustrator 21.0.0, SVG Export Plug-In . SVG Version: 6.00 Build 0)  -->
<svg version="1.1" id="图层_1" xmlns="http://www.w3.org/2000/svg" xmlns:xlink="http://www.w3.org/1999/xlink" x="0px" y="0px"
	 viewBox="0 0 141.7 141.7" style="enable-background:new 0 0 141.7 141.7;" xml:space="preserve">
<style type="text/css">
	.st0{fill-rule:evenodd;clip-rule:evenodd;}
	.st1{fill:#FFFFFF;}
	.st2{fill-rule:evenodd;clip-rule:evenodd;fill:#FFFFFF;}
</style>
<g>
	<g>
		<path class="st2" d="M63.3,83c-0.5-0.2-1-0.2-1.5,0c-0.5,0.2-0.9,0.5-1.2,1c-0.6,1.1-0.4,2,0.7,2.5c0.5,0.2,1,0.2,1.6,0
			c0.5-0.2,0.9-0.5,1.2-1c0.3-0.5,0.3-1,0.2-1.5C64.1,83.5,63.7,83.2,63.3,83z M70.9,2.8c-37.6,0-68,30.5-68,68s30.5,68,68,68
			s68-30.5,68-68S108.4,2.8,70.9,2.8z M104.7,90.4c-1.3,2.6-3.3,5.1-5.9,7.5c-2.6,2.4-5.6,4.5-9,6.4c-3.5,1.9-7.5,3.4-12.1,4.5
			c-4.6,1.1-9.5,1.7-14.5,1.7c-5,0-10-0.6-14.8-1.8c-4.8-1.2-9.1-2.9-12.9-5.1c-3.8-2.2-6.9-4.9-9.2-8.3c-2.3-3.3-3.5-7-3.5-10.9
			c0-4.2,1.2-8.7,3.7-13.4c2.5-4.7,6-9.5,10.6-14.1c6-6.2,12.2-10.5,18.3-12.9c6.2-2.4,10.6-2.3,13.2,0.4c2.3,2.3,2.7,6.2,1.1,11.5
			c-0.1,0.5-0.2,0.9-0.1,1.1c0.1,0.2,0.3,0.3,0.5,0.4c0.2,0,0.5,0,0.8,0c0.3-0.1,0.5-0.1,0.7-0.2L72,57c5-2.2,9.4-3.2,13.2-3.2
			c3.8,0,6.6,1.1,8.2,3.3c1.6,2.3,1.6,5.6,0,9.8c-0.1,0.5-0.2,0.8-0.2,1.1c-0.1,0.3,0,0.5,0.2,0.7c0.2,0.2,0.5,0.3,0.6,0.4
			c0.2,0.1,0.5,0.2,0.9,0.3c2,0.7,3.9,1.5,5.5,2.6c1.6,1.1,3.1,2.5,4.3,4.5c1.2,1.9,1.8,4,1.8,6.4C106.7,85.3,106,87.8,104.7,90.4z
			 M98,52.9c-1.6-1.8-3.5-2.4-5.7-1.9c-0.9,0.2-1.7,0-2.4-0.4c-0.8-0.5-1.2-1.2-1.3-2c-0.2-0.9,0-1.7,0.4-2.4c0.5-0.7,1.1-1.2,2-1.4
			c2.1-0.5,4.3-0.4,6.4,0.3c2.1,0.7,3.9,1.9,5.4,3.6c1.5,1.7,2.5,3.7,2.9,5.9c0.4,2.2,0.3,4.4-0.3,6.4c-0.3,0.8-0.8,1.5-1.6,1.9
			c-0.8,0.4-1.6,0.5-2.4,0.2c-0.8-0.3-1.4-0.8-1.8-1.6c-0.4-0.8-0.5-1.6-0.2-2.4C100,56.7,99.5,54.7,98,52.9z M117.7,65.1
			c-0.3,1-0.9,1.7-1.8,2.2c-0.9,0.5-1.8,0.5-2.8,0.2c-1-0.3-1.7-0.9-2.1-1.9c-0.5-0.9-0.6-1.9-0.3-2.8c1-3,1.2-6.1,0.5-9.4
			c-0.6-3.3-2.1-6.2-4.3-8.7c-2.2-2.5-4.9-4.3-7.9-5.2c-3.1-1-6.2-1.1-9.3-0.5c-1,0.2-1.9,0-2.8-0.5c-0.9-0.6-1.4-1.4-1.6-2.4
			c-0.2-1,0-2,0.5-2.8c0.6-0.9,1.3-1.4,2.3-1.6c4.4-0.9,8.8-0.7,13.1,0.6c4.3,1.4,8.1,3.8,11.2,7.4c3.1,3.5,5.1,7.6,6,12.2
			C119.4,56.5,119.1,60.9,117.7,65.1z M85.3,73.3c-2.9-2.7-6.6-4.7-11.2-6c-4.6-1.3-9.5-1.7-14.7-1.2c-8,0.8-14.6,3.4-19.8,7.8
			c-5.2,4.3-7.6,9.2-7.1,14.5c0.3,3.5,1.9,6.6,4.8,9.3c2.9,2.7,6.6,4.7,11.2,6c4.6,1.3,9.5,1.7,14.7,1.2c8-0.8,14.6-3.4,19.8-7.8
			c5.2-4.3,7.6-9.2,7.1-14.5C89.8,79.1,88.2,76,85.3,73.3z M73.4,91.4c-1.6,3.7-4.4,6.5-8.5,8.2c-4,1.8-8.1,2-12,0.7
			c-3.8-1.2-6.5-3.6-7.9-6.9c-1.4-3.4-1.3-6.8,0.3-10.3c1.7-3.4,4.4-5.9,8.1-7.6c3.7-1.7,7.5-2,11.3-1c4,1.1,6.8,3.2,8.5,6.5
			C74.9,84.2,75,87.7,73.4,91.4z M57.2,85.6c-1.2-0.5-2.5-0.5-3.9-0.1c-1.4,0.5-2.5,1.3-3.2,2.5c-0.8,1.2-1,2.5-0.7,3.8
			c0.3,1.3,1.1,2.2,2.3,2.8c1.2,0.6,2.6,0.6,4,0.1c1.4-0.5,2.6-1.4,3.4-2.6c0.8-1.2,0.9-2.5,0.6-3.8C59.2,87.1,58.4,86.1,57.2,85.6z
			"/>
	</g>
</g>
</svg>
