<?xml version="1.0" encoding="utf-8"?>
<!-- Generator: Adobe Illustrator 21.0.0, SVG Export Plug-In . SVG Version: 6.00 Build 0)  -->
<svg version="1.1" id="图层_1" xmlns="http://www.w3.org/2000/svg" xmlns:xlink="http://www.w3.org/1999/xlink" x="0px" y="0px"
	 viewBox="0 0 141.7 141.7" style="enable-background:new 0 0 141.7 141.7;" xml:space="preserve">
<style type="text/css">
	.st0{fill:#FFFFFF;}
</style>
<g>
	<g>
		<path class="st0" d="M97.5,49.4c0.7,0,1.4,0,2,0C95.9,29.9,75.8,15,51.4,15C24.5,15,2.8,33.2,2.8,55.7c0,13.2,7.5,24.9,19.1,32.3
			c0.2,0.1,0.4,0.3,0.4,0.3L17.6,103l17.6-9c0,0,0.6,0.2,0.8,0.2c4.8,1.3,10,2.1,15.4,2.1c1.1,0,2.2,0,3.3-0.1
			c-1-3.1-1.5-6.4-1.5-9.7C53.1,66.1,73,49.4,97.5,49.4z M68.4,35.1c3.8,0,6.8,3,6.8,6.6c0,3.7-3.1,6.6-6.8,6.6
			c-3.8,0-6.8-3-6.8-6.6C61.5,38,64.6,35.1,68.4,35.1z M34.5,48.3c-3.8,0-6.8-3-6.8-6.6c0-3.7,3.1-6.6,6.8-6.6c3.8,0,6.8,3,6.8,6.6
			C41.3,45.3,38.3,48.3,34.5,48.3z"/>
	</g>
	<path class="st0" d="M56.7,86.8c0,19,18.4,34.4,41.1,34.4c4.5,0,8.9-0.6,13-1.8c0.2-0.1,0.7-0.2,0.7-0.2l14.9,7.6l-4-12.4
		c0,0,0.3-0.2,0.4-0.2c9.8-6.3,16.1-16.2,16.1-27.3c0-19-18.4-34.4-41.1-34.4C75.1,52.4,56.7,67.8,56.7,86.8z M106.4,75
		c0-3.1,2.6-5.6,5.8-5.6c3.2,0,5.8,2.5,5.8,5.6c0,3.1-2.6,5.6-5.8,5.6C109,80.6,106.4,78.1,106.4,75z M77.8,75
		c0-3.1,2.6-5.6,5.8-5.6c3.2,0,5.8,2.5,5.8,5.6c0,3.1-2.6,5.6-5.8,5.6C80.3,80.6,77.8,78.1,77.8,75z"/>
</g>
</svg>
