<?xml version="1.0" encoding="utf-8"?>
<!-- Generator: Adobe Illustrator 21.0.0, SVG Export Plug-In . SVG Version: 6.00 Build 0)  -->
<svg version="1.1" id="图层_1" xmlns="http://www.w3.org/2000/svg" xmlns:xlink="http://www.w3.org/1999/xlink" x="0px" y="0px"
	 viewBox="0 0 141.7 141.7" style="enable-background:new 0 0 141.7 141.7;" xml:space="preserve">
<style type="text/css">
	.st0{fill-rule:evenodd;clip-rule:evenodd;}
	.st1{fill:#FFFFFF;}
	.st2{fill-rule:evenodd;clip-rule:evenodd;fill:#FFFFFF;}
</style>
<g>
	<g>
		<path class="st2" d="M81,70.9c-1.8,0-3.5,1.8-3.5,3.5c0,1.8,1.8,3.5,3.5,3.5c2.7,0,4.4-1.7,4.4-3.5C85.4,72.6,83.7,70.9,81,70.9z
			 M69.5,54.1c2.7,0,4.4-1.8,4.4-4.4c0-2.7-1.8-4.4-4.4-4.4c-2.6,0-5.3,1.7-5.3,4.4C64.2,52.3,66.9,54.1,69.5,54.1z M44.8,45.2
			c-2.7,0-5.3,1.8-5.3,4.4c0,2.6,2.7,4.4,5.3,4.4s4.4-1.8,4.4-4.4C49.2,47,47.5,45.2,44.8,45.2z M70.9,2.8c-37.6,0-68,30.5-68,68
			s30.5,68,68,68s68-30.5,68-68S108.4,2.8,70.9,2.8z M56.3,90.3c-4.4,0-8-0.9-12.4-1.8l-12.4,6.2l3.5-10.6C26.3,77.9,21,70,21,60.3
			c0-16.8,15.9-30,35.3-30c17.4,0,32.6,10.6,35.6,24.8c-1.1-0.1-2.3-0.2-3.4-0.2c-16.8,0-30,12.5-30,28c0,2.6,0.4,5,1.1,7.4
			C58.5,90.3,57.4,90.3,56.3,90.3z M108.4,102.7l2.7,8.8l-9.7-5.3c-3.5,0.9-7.1,1.8-10.6,1.8c-16.8,0-30-11.5-30-25.6
			c0-14.1,13.2-25.6,30-25.6c15.9,0,30,11.5,30,25.6C120.8,90.3,115.5,97.4,108.4,102.7z M100.4,70.9c-1.7,0-3.5,1.8-3.5,3.5
			c0,1.8,1.8,3.5,3.5,3.5c2.7,0,4.4-1.7,4.4-3.5C104.9,72.6,103.1,70.9,100.4,70.9z"/>
	</g>
</g>
</svg>
